<svg width="359" height="309.56" version="1.0" xmlns="http://www.w3.org/2000/svg"><rect id="background" width="100%" height="100%" fill="none" /> <path id="emblem" d="m178.72 0-79.62 137.9c30.212-9.3141 62.713-10.695 94.218-3.2636l26.909 6.3516-25.317 107.35-26.947-6.3514c-20.7-4.8832-42.278-0.0447-58.966 13.148-8.3477 6.6025-14.924 14.892-19.431 24.191l-24.908-12.051c6.3013-13.015 15.514-24.623 27.151-33.835 23.278-18.425 53.628-25.193 82.527-18.374l12.62-53.502c-45.206-10.657-92.848-0.0447-129.27 28.782-36.418 28.824-57.691 72.765-57.691 119.21l357.46 6e-3z" fill="#60a5fa" stroke-linecap="square" stroke-width="27.239" style="paint-order:markers fill stroke" /></svg>